<?xml version="1.0" encoding="UTF-8"?>
<svg width="752pt" height="752pt" version="1.1" viewBox="0 0 752 752" xmlns="http://www.w3.org/2000/svg">
 <defs>
  <clipPath id="a">
   <path d="m139.21 139.21h473.58v473.58h-473.58z"/>
  </clipPath>
 </defs>
 <path d="m210.25 352.32c0 37.68 14.965 73.816 41.609 100.46 26.645 26.645 62.781 41.613 100.46 41.613 37.68 0 73.816-14.969 100.46-41.613 26.645-26.645 41.613-62.781 41.613-100.46 0-37.684-14.969-73.82-41.613-100.46-26.645-26.645-62.781-41.609-100.46-41.609-37.668 0.042969-73.781 15.023-100.41 41.66-26.637 26.633-41.617 62.746-41.66 100.41zm268.36 0h-0.003906c0 33.492-13.305 65.613-36.988 89.297s-55.805 36.988-89.297 36.988c-33.496 0-65.617-13.305-89.301-36.988-23.684-23.684-36.988-55.805-36.988-89.297 0-33.496 13.305-65.617 36.988-89.301 23.684-23.684 55.805-36.988 89.301-36.988 33.48 0.039063 65.578 13.355 89.254 37.031 23.676 23.676 36.992 55.773 37.031 89.258z" fill="#00b7c1"/>
 <g clip-path="url(#a)">
  <path d="m352.32 139.21c-45.125-0.035157-89.094 14.254-125.58 40.809-36.48 26.555-63.594 64-77.43 106.95-13.84 42.949-13.688 89.184 0.43359 132.04 14.121 42.859 41.477 80.129 78.137 106.44 36.656 26.312 80.719 40.312 125.84 39.98 45.121-0.33203 88.973-14.98 125.24-41.828l79.91 79.883c5.9492 5.875 13.969 9.1719 22.328 9.1797 8.3594 0.011719 16.387-3.2695 22.348-9.1289 5.7266-6.0195 8.9219-14.008 8.9219-22.316 0-8.3047-3.1953-16.297-8.9219-22.312l-79.949-79.941c31.469-42.484 46.012-95.16 40.797-147.77-5.2148-52.617-29.812-101.41-69.012-136.89-39.195-35.484-90.191-55.117-143.06-55.086zm240.06 430.86c3.1641 2.9141 5.0039 6.9883 5.0938 11.289 0.089843 4.3008-1.5781 8.4492-4.6211 11.488-3.0391 3.043-7.1875 4.7109-11.488 4.6211-4.3008-0.089844-8.375-1.9297-11.289-5.0938l-53.586-53.617 22.305-22.305zm-64.785-64.777-22.305 22.305-13.953-13.945c7.9688-6.8828 15.422-14.344 22.305-22.312zm-175.28 44.359c-52.336 0-102.53-20.789-139.53-57.797-37.008-37.004-57.797-87.195-57.797-139.53 0-52.336 20.789-102.53 57.797-139.53 37.004-37.008 87.195-57.797 139.53-57.797 52.332 0 102.52 20.789 139.53 57.797 37.008 37.004 57.797 87.195 57.797 139.53-0.058594 52.312-20.867 102.47-57.859 139.46-36.996 36.992-87.152 57.801-139.46 57.859z" fill="#00b7c1"/>
 </g>
 <path d="m393.59 175.52c-2.0508-0.51953-4.2266-0.19141-6.0352 0.90625-1.8086 1.1016-3.1016 2.8828-3.5859 4.9453-0.48047 2.0625-0.11719 4.2305 1.0156 6.0195 1.1328 1.7891 2.9375 3.0508 5.0078 3.4961 41.234 9.5977 77.234 34.602 100.62 69.891 23.391 35.289 32.398 78.188 25.176 119.9-7.2227 41.715-30.125 79.09-64.016 104.46-33.891 25.371-76.203 36.82-118.26 32-42.062-4.8242-80.684-25.551-107.96-57.93-27.27-32.383-41.121-73.973-38.715-116.24 2.4023-42.27 20.883-82.016 51.652-111.09 30.77-29.082 71.496-45.293 113.83-45.309 4.3555 0 7.8906-3.5352 7.8906-7.8945s-3.5352-7.8945-7.8906-7.8945c-46.328 0.023438-90.891 17.758-124.56 49.578-33.668 31.82-53.891 75.312-56.527 121.56s12.52 91.758 42.355 127.2c29.836 35.438 72.098 58.121 118.12 63.402 46.023 5.2812 92.324-7.2383 129.41-34.992 37.09-27.758 62.16-68.648 70.07-114.3 7.9102-45.645-1.9336-92.586-27.52-131.21-25.586-38.617-64.973-65.988-110.09-76.504z" fill="#00b7c1"/>
 <path d="m321.54 288.07c-4.4219-4.4805-10.445-7.0117-16.738-7.0352-6.293-0.023437-12.332 2.4648-16.785 6.9102-4.457 4.4453-6.9531 10.484-6.9414 16.777 0.015625 6.293 2.5352 12.32 7.0078 16.75l30.656 30.68-30.625 30.656c-4.3828 4.4688-6.8359 10.48-6.8359 16.738 0 6.2578 2.4531 12.266 6.8359 16.738 4.5391 4.2305 10.512 6.582 16.719 6.582 6.2031 0 12.176-2.3516 16.715-6.582l30.641-30.672 30.633 30.637c4.3359 4.8711 10.484 7.7383 17 7.9297 6.5156 0.1875 12.82-2.3164 17.43-6.9258 4.6094-4.6094 7.1172-10.914 6.9297-17.43-0.19141-6.5156-3.0547-12.664-7.9258-17l-30.641-30.672 30.641-30.617c4.293-4.5117 6.6523-10.523 6.5781-16.75 0.125-6.2266-2.2422-12.246-6.5781-16.715-4.4844-4.3398-10.484-6.7656-16.727-6.7656-6.2422 0-12.242 2.4258-16.73 6.7656l-30.648 30.68zm72.457 11.051c3.1523-2.5312 7.707-2.2734 10.551 0.59766s3.0586 7.4258 0.5 10.555l-36.148 36.301c-3.082 3.082-3.082 8.0781 0 11.16l36.254 36.309-0.003906-0.003906c3.0117 3.0703 3.0117 7.9844 0 11.051-3.1016 3.0039-8.0234 3.0039-11.129 0l-36.258-36.195c-3.082-3.082-8.0781-3.082-11.16 0l-36.223 36.227c-3.1328 2.9219-7.9961 2.9219-11.129 0-3.0078-3.0664-3.0078-7.9805 0-11.047l36.23-36.27c3.0781-3.082 3.0781-8.0781 0-11.16l-36.262-36.309c-2.5-3.1523-2.2305-7.6758 0.625-10.508s7.3789-3.0664 10.512-0.54297l36.223 36.309c3.1289 2.9609 8.0273 2.9609 11.16 0z" fill="#00b7c1"/>
</svg>
